<svg id="peer" xmlns="http://www.w3.org/2000/svg" viewBox="0 0 1033.37 953"><path class="fc" d="M330.6,108.2l-20.73,13c4.33,5.82.21,9.18-3.37,12.66q-16.85,16.41-33.74,32.76c-16.44,15.85-33.35,31.24-49.28,47.59-12.49,12.82-22.85,27.42-31.75,43.08-11.58,20.41-22.82,41.12-36,60.5-16,23.58-36.94,41.92-65.26,49.83a79,79,0,0,1-17.08,2.75c-19.68,1-39.13-1.41-58.48-4.77-4.09-.71-8.2-1.34-12.31-2v-5.89c9.51-10.2,20.1-19.6,28.32-30.74,27.2-36.88,53.37-74.52,80.29-111.6C124,197.86,139,182.14,155.09,167.69c21.55-19.34,46.14-33.73,74.1-42.12a141.67,141.67,0,0,1,53.35-5.22c8.87.78,16-1,23-5.87s14.17-9.4,22-14.55c-6.17-6.62-11.87-12.8-17.64-18.91-1.95-2.07-4.4-4-1.43-6.9,2.73-2.71,5.23-.9,7.23,1a129.17,129.17,0,0,1,23.33,29c13.6,23,20.85,48.23,27.1,73.87a30.33,30.33,0,0,0,1.11,4.19c1.12,2.75,2.12,5.72-1.7,6.69-1.82.46-4.11-.92-7.42-1.8-5.58,4.28-12.89,9.11-19.26,15-13.07,12-21.57,27.46-28.33,43.52-5.88,14-10.33,28.64-14.31,43.29-2.6,9.56-3.7,19.6-4.63,29.5a324.48,324.48,0,0,0-1.91,36.45c.33,17.34,1.78,34.67,2.81,52,.58,9.86,1.46,19.72,1.89,29.59.52,11.88.95,23.78,1,35.67,0,21.4-3.47,42.39-8.13,63.2C280.72,564,274,592.75,267.89,621.6c-3.7,17.42-7.38,34.91-9.56,52.56-2.17,17.42-3.91,35,.28,52.62,3.08,12.94,4.1,26.36,6.32,39.52,3.86,22.81,9,45.33,17.29,67,6.8,17.85,15.59,34.65,27.7,49.62a143.76,143.76,0,0,0,36.91,32.44,195.17,195.17,0,0,0,64.3,24.93c18.59,3.73,37.3,6.35,56.3,5.83,15.31-.43,30.64-.87,45.91-2,28.22-2.08,55.4-9.19,82-18.63,32.34-11.5,62.2-27.67,89.13-49.55-5.73,1.7-11.4,3.63-17.2,5.08-22.85,5.73-45.6,11.94-68.65,16.71-14.15,2.93-28.75,4-43.2,5.07a315,315,0,0,1-39.09.93c-19.77-1-39.48-3.72-58.33-10a367.17,367.17,0,0,1-41.1-16.26c-18.6-8.83-35.28-20.7-50.63-34.59a183.66,183.66,0,0,1-43.69-58.58c-6.71-14.32-10.69-29.48-13.5-45-3.48-19.19-3.3-38.56-2.72-57.88.35-11.57,2.18-23.11,3.7-34.61,1.78-13.39,3.89-26.74,6-40.09,1.64-10.48,3.56-20.91,5.13-31.4,1.69-11.29,3.76-22.58,4.54-33.95,1.2-17.69,2-35.44,1.89-53.15-.06-10.25-1.88-20.54-3.55-30.7-2.72-16.63-5.8-33.21-9.05-49.75-3.21-16.36-7.11-32.6-10.17-49-2-10.74-3.1-21.65-4.51-32.5-2.37-18.31.86-36,6.93-53.14a136.37,136.37,0,0,1,26-44.89c6.83-7.77,14.24-15,21.4-22.48.68-.71,1.39-1.81,2.17-1.89,1.82-.17,4.1-.45,5.43.44,2.18,1.48,1.92,3.82-.07,5.69-4.52,4.22-9.35,8.15-13.54,12.67-16,17.17-29,36.23-35.56,59a167.4,167.4,0,0,0-4.79,26c-2.42,20,2.62,39.36,6.28,58.76q6.74,35.7,14.34,71.23c6.06,28.26,7.85,56.85,6.63,85.59-.57,13.49-2.69,26.94-4.57,40.34-2.08,14.8-4.63,29.53-7.07,44.28-1.78,10.77-3.93,21.49-5.53,32.28Q316.21,654,315.06,668c-.92,11-2,22-1.9,33,.31,27.62,4.76,54.45,16.75,79.72a175.37,175.37,0,0,0,26.73,40.67c23.94,27.36,53.5,46.18,87.23,59.1,18.43,7,37.3,12.1,57,13.51,15.56,1.12,31.23,2.47,46.76,1.79A384.7,384.7,0,0,0,614,886.58c29.47-6.54,58.52-14.57,86.78-25.13,5.81-2.17,11.09-7.44,15.07-12.49a316.48,316.48,0,0,0,22-31.65c7.91-13,11.56-27.75,14.23-42.66,3.78-21.12,3.55-42.49,2.76-63.76-.58-15.44-3-30.83-4.7-46.22-2.57-22.59-8.33-44.47-15.79-65.87-9-25.72-21.67-49.49-39.15-70.48-9.23-11.09-18.92-21.79-28.56-32.53-17.53-19.52-36-38.19-51-59.88-14.5-21-26-43.58-35.79-67.09-10.52-25.16-21.39-50.19-32.13-75.26a280.5,280.5,0,0,0-32.49-56.86c-13.76-18.57-30.13-34.47-50.55-45.94-14.49-8.13-29.85-13.71-46.24-15.51A83,83,0,0,0,377.51,181c-1.47.6-3.07,1.83-4.42,1.6s-3.75-1.82-3.78-2.86c0-1.65,1.1-4.29,2.44-4.86A97.41,97.41,0,0,1,422.39,168c16.31,2,31.26,7.4,45.39,15.27,17,9.47,31.36,22.06,44.16,36.75,17.77,20.42,30.81,43.69,42.08,68,8.3,17.9,15.58,36.29,23.23,54.49,10.6,25.2,21.08,50.44,35.7,74.45,7.64-12.59,15.32-24.53,22.25-36.9,9.13-16.3,18-32.75,26.36-49.48,9.17-18.44,15.46-38,20.86-57.88,3.92-14.38,7.47-28.89,12.08-43.05,6-18.56,14.37-36.07,26.56-51.6,9.63-12.28,18.55-25.11,28.18-37.39,15.46-19.74,34-35.63,59-41.59,8.95-2.13,18.39-2.18,27.77-3.19,1.36-8.8,2.63-19,4.59-29.1a244,244,0,0,1,17.24-54C859.15,9.85,860.58,7,861.7,4s3.5-3.49,5.87-2.4c2.53,1.17,2.82,3.22,1.63,6.11-5.2,12.6-11.13,25.05-14.75,38.12-4.41,15.86-6.8,32.28-10,48.48-.62,3.18.7,4.34,4.18,5.5,29.88,10,49.61,29.5,55.76,61.25,2.9,15,2.37,30,1,45.1-.88,9.68-1.4,19.4-2,29.1-.39,6.15-1,12.32-.93,18.47.42,24.24,5.69,47.52,14.44,70.06,12.24,31.51,29.77,60.17,47.48,88.79,13.62,22,26.64,44.37,39.47,66.84a240,240,0,0,1,26.36,68.52c2.3,10.66,3.4,21.59,4.73,32.43a95,95,0,0,1,1,17c-1,17.54-3.37,34.83-8.44,51.8a215.17,215.17,0,0,1-27,58.35C990,723.08,978.17,737.57,963.75,750c-14.91,12.81-30.86,23.89-48.46,32.43-21.62,10.5-44.28,18.07-68.21,21.27-9.91,1.32-19.89,2.42-29.87,2.88a289.16,289.16,0,0,1-32.52-.06c-10.38-.69-20.66-2.71-30.78-4.12-3.79,7.8-7.13,16.21-11.76,23.82A205,205,0,0,1,724,851.73c-20.06,23.79-45.46,40.86-72.22,56.15a348.2,348.2,0,0,1-95.33,37c-14.53,3.34-29.49,4.77-44.24,7.18a35.41,35.41,0,0,0-5.71,1.9H436.8c-.85-.65-1.65-1.79-2.55-1.89a237.52,237.52,0,0,1-73.1-19.67,158.58,158.58,0,0,1-54.8-40.83c-13.52-15.51-23.22-33.49-30.63-52.71-8-20.72-13.4-42.16-17.54-63.9-3.43-18-6.18-36.09-8.89-54.2-2-13.39-1.27-26.82.81-40.18,3-19,5.55-38.16,9-57.12,2.8-15.27,6.74-30.34,10.07-45.52,5.15-23.48,10.72-46.89,15.16-70.51,4.05-21.5,3.64-43.4,3-65.18-.43-15.05-2.16-30.06-2.78-45.11-.92-22.61-2.5-45.28-1.74-67.85a238.56,238.56,0,0,1,19.5-86c7.8-18.26,17.25-35.49,32.24-48.9,5.34-4.78,11.69-8.47,17.74-12.42,1.1-.72,3-.29,4.46-.4l1.11-1.11c-1.21-5.55-1.9-11.28-3.74-16.62-5.24-15.19-10.85-30.27-16.58-45.29-1.4-3.67-3.83-6.94-5.79-10.39ZM756.17,795.51c16,1.42,32,3,48.05,4.16a81.11,81.11,0,0,0,16-.93c14.51-1.89,29.2-3.09,43.42-6.34a211.12,211.12,0,0,0,61.74-25.08c21.53-12.9,40.49-28.69,56.41-48.24a203.12,203.12,0,0,0,35.45-64.25c8.29-24.8,12.47-50.2,10.1-76.6a220.44,220.44,0,0,0-8.62-43.88c-8.2-27.34-21.55-52.28-35.9-76.68-16.38-27.83-34-54.94-50-83-9.33-16.41-17.05-33.82-24.4-51.23a151.78,151.78,0,0,1-11.92-47c-.95-12-2.09-24-1.74-36,.4-13.37,2.91-26.66,3.53-40a222.41,222.41,0,0,0-.92-31.71c-2.78-28.82-19.1-47.86-44.9-59.28-3.81-1.68-8.26-4.84-13.07-1.41-.39.28-1.63-.7-2.51-1-2.8-1-5.71-2.84-8.41-2.59-7.65.7-15.43,1.53-22.77,3.67-21.61,6.32-37,21.28-50.62,38.33-7.52,9.44-14.28,19.49-21.73,29C719.78,192.82,707.93,211,702,232.57c-5.15,18.69-10.16,37.42-15.62,56-7.35,25.08-18,48.83-30.79,71.55-12.25,21.68-24.93,43.11-37.62,65,14.29,22.29,33.32,41.52,51.37,61.57,10.3,11.44,20.64,22.86,30.62,34.58C719.31,544,732.78,570,742.58,598c10,28.69,15.51,58.38,18.15,88.49,1.81,20.56,1.63,41.31,2.12,62a85,85,0,0,1-1.07,15C760.19,773.8,758.21,784,756.17,795.51Zm-741-437.46c1.81.29,3,.54,4.22.67,9.47,1,18.91,2.55,28.41,2.91,11.62.43,23.45,1.07,34.9-.49,19.09-2.61,33.75-14.48,47.75-26.71,17.46-15.26,28.9-35.07,40-55,10.25-18.43,19.73-37.22,33.19-53.7a404.21,404.21,0,0,1,41.15-44.05c16.29-14.79,31.9-30.35,47.73-45.64,1.16-1.12,1.74-2.84,2.91-4.81-3.78.67-6.82.45-9,1.71-9.87,5.72-19.6,11.7-29.19,17.86a432.08,432.08,0,0,0-65.49,51.12c-17.38,16.64-33.1,35-49.67,52.49a5.7,5.7,0,0,1-4.66,1.5c-1-.27-1.84-2.57-2-4.05-.14-1,.72-2.42,1.5-3.34,7.74-9.13,14.95-18.82,23.48-27.14,16.05-15.66,32.18-31.37,49.57-45.47,17.7-14.36,36.93-26.84,55.56-40,3.76-2.66,7.88-4.82,11.83-7.21l-.48-1.23c-9.09.49-18.31.17-27.25,1.61a160.39,160.39,0,0,0-63.94,25.57c-15.9,10.62-30.61,22.7-43.19,37.23-7.43,8.57-15.76,16.48-22.37,25.63-20.23,28-39.55,56.68-59.8,84.68-10.76,14.88-22.65,28.94-34.13,43.29C22.84,349.61,19.18,353.48,15.18,358.05Z" transform="translate(-2.62 -1)"/><path class="fc" d="M508.14,611.6c-6,9.88-11.34,19.65-17.7,28.67a105,105,0,0,0-18,44.73c-1.37,8.67-.32,17.72-.36,26.59,0,1.31.46,2.82,0,3.88-.68,1.43-2.35,3.69-3.13,3.51-1.69-.37-4.22-1.9-4.42-3.25-2.85-19.24-.16-37.85,6.52-56.06,5.29-14.42,15.22-26,22.66-39.15,2.53-4.46,5.46-9,6.42-13.92.57-2.93-2-6.76-3.8-9.76-1.54-2.52-4.46-4.61-.88-7.31,3-2.25,4.95-.73,7.12,2.05,1.13,1.45,4.51,2.21,6.5,1.74,18.07-4.33,36.49-4.86,54.73-3.49,22.06,1.65,43.61,6.16,62,20,11.25,8.51,17.42,20.25,21,33.29,2.27,8.14,3,16.73,3.9,25.18.14,1.42-2.36,3.91-4.12,4.54-2.63.93-3.3-1.2-3.58-3.73-1.34-12.12-2.6-24.22-8.27-35.43-7.91-15.66-21.1-24.39-37.24-29.35-20-6.15-40.61-8-61.42-6.85-8.15.45-16.23,2-25.19,3.15,4.79,6.39,9.23,12.21,13.55,18.11,14.79,20.18,27.7,41.5,37.24,64.66,5.68,13.77,10.47,27.9,15.69,41.86.93,2.49,2.3,5.28-1.22,6.53s-5.32-.69-6.63-4.24c-5.7-15.47-10.86-31.24-17.95-46.08-7.8-16.33-17.23-31.91-26.47-47.51-4.25-7.17-9.71-13.62-14.69-20.35A12,12,0,0,0,508.14,611.6Z" transform="translate(-2.62 -1)"/><path class="fc" d="M546.82,628.43a90.24,90.24,0,0,1,.1-9.31c.15-1.37,1.11-3.34,2.19-3.75a5.25,5.25,0,0,1,4.35,1.08c9.63,8.44,19.07,17.09,28.65,25.58q10.73,9.48,21.66,18.72c4.23,3.54,6.27,10.27,4.12,14.81-2.81,5.92-10.51,10-17,8.14-20.66-5.8-36-17.74-42.37-39-1.56-5.17-1.59-10.8-2.32-16.22Z" transform="translate(-2.62 -1)"/><path class="fc" d="M528.43,644.89c.88,4.83,1.79,9.65,2.65,14.48q3.27,18.24,6.5,36.47c1.17,6.69,2,13.29-2,19.53-2.79,4.34-5.79,7.68-11.64,6.86a12.46,12.46,0,0,1-10.27-8.59c-6.39-17.61-5.56-35.1,2.68-52,3-6.06,6.91-11.64,10.41-17.44Z" transform="translate(-2.62 -1)"/><path class="fc" d="M374.32,204.16c1.49,14.62,3.06,29.23,4.45,43.87,2.2,23.24,6.93,46,13,68.51,4.82,17.76,11.13,35.11,16.79,52.64.45,1.37,1.52,2.71,1.46,4-.08,1.71-1,3.38-1.57,5.07-1.86-.66-4.38-.8-5.45-2.11-1.67-2-2.52-4.81-3.43-7.37-10.1-28.43-18.75-57.29-23.61-87.11-2.8-17.14-5-34.39-6.86-51.66-1.21-11.1-1.52-22.31-1.92-33.49-.06-1.55,1.64-3.16,2.53-4.75,1.73,1.65,4.16,3,5,5s.19,4.83.19,7.28Z" transform="translate(-2.62 -1)"/></svg>